<?xml version="1.0" standalone="no"?>
<!DOCTYPE svg PUBLIC "-//W3C//DTD SVG 20010904//EN"
 "http://www.w3.org/TR/2001/REC-SVG-20010904/DTD/svg10.dtd">
<svg version="1.0" xmlns="http://www.w3.org/2000/svg"
 width="1164.000000pt" height="1164.000000pt" viewBox="0 0 1164.000000 1164.000000"
 preserveAspectRatio="xMidYMid meet">
<metadata>
Created by potrace 1.11, written by Peter Selinger 2001-2013
</metadata>
<g transform="translate(0.000000,1164.000000) scale(0.100000,-0.100000)"
fill="#000000" stroke="none">
<path d="M5859 8736 c-2 -2 -38 -6 -79 -10 -41 -3 -86 -8 -100 -11 -14 -2 -52
-9 -85 -14 -33 -6 -71 -13 -85 -16 -14 -3 -38 -8 -55 -11 -63 -11 -368 -108
-390 -123 -5 -4 -32 -16 -60 -26 -27 -10 -57 -24 -67 -32 -9 -8 -22 -15 -30
-17 -8 -1 -31 -12 -51 -24 -21 -12 -40 -22 -43 -22 -4 0 -87 -52 -181 -114
-18 -11 -33 -24 -33 -28 0 -5 -5 -8 -11 -8 -6 0 -16 -6 -23 -12 -7 -7 -25 -22
-40 -33 -79 -58 -231 -204 -321 -309 -27 -33 -56 -65 -62 -72 -7 -7 -13 -17
-13 -22 0 -5 -6 -15 -14 -21 -21 -17 -136 -194 -181 -276 -75 -138 -81 -151
-104 -205 -13 -30 -32 -73 -41 -95 -33 -73 -121 -335 -125 -370 0 -5 -6 -29
-13 -52 -11 -37 -49 -209 -57 -258 -8 -47 -25 -164 -31 -210 -3 -27 -7 -61 -9
-75 -18 -130 -24 -605 -11 -775 10 -122 24 -261 31 -296 2 -9 7 -39 11 -66 3
-26 8 -57 11 -68 2 -11 6 -31 9 -45 10 -54 25 -127 35 -165 6 -22 15 -56 20
-75 5 -19 21 -72 35 -118 14 -46 27 -89 28 -95 2 -7 7 -21 11 -32 4 -11 25
-64 47 -118 40 -102 151 -331 172 -357 7 -8 28 -42 46 -75 19 -33 40 -66 47
-75 7 -8 34 -45 62 -83 107 -146 237 -282 400 -418 126 -106 387 -262 546
-326 125 -51 330 -115 410 -129 17 -2 37 -7 46 -10 10 -2 30 -6 45 -9 16 -2
44 -6 62 -9 69 -13 90 -15 167 -23 106 -10 473 -10 555 0 36 4 81 10 100 12
104 10 365 66 430 92 8 3 21 7 28 9 39 8 222 84 322 134 177 88 349 202 479
319 91 82 120 111 245 251 24 26 153 202 173 235 7 11 31 52 54 90 53 87 155
291 164 327 4 16 10 28 14 28 4 0 8 6 9 13 0 6 23 75 50 153 42 120 104 347
118 434 4 23 7 37 19 100 3 14 7 45 10 70 2 25 7 56 10 70 3 14 8 56 11 94 3
38 7 78 9 88 6 28 18 301 18 398 0 84 -11 323 -18 390 -2 19 -6 65 -10 102 -3
37 -8 77 -11 90 -2 13 -7 41 -9 63 -3 22 -7 51 -10 65 -3 14 -7 39 -10 55 -3
17 -7 41 -11 55 -3 14 -7 34 -9 45 -2 16 -23 98 -59 240 -2 6 -6 17 -9 25 -3
8 -13 40 -22 70 -40 130 -199 497 -226 520 -3 3 -9 12 -12 20 -4 8 -16 29 -27
45 -11 17 -23 37 -27 45 -4 8 -27 43 -52 78 -26 35 -50 71 -56 80 -5 9 -14 21
-20 28 -5 6 -28 33 -50 60 -68 84 -151 170 -249 259 -122 111 -339 259 -453
309 -24 11 -43 23 -43 28 0 4 -3 7 -7 6 -5 -1 -24 5 -43 14 -176 83 -408 154
-636 193 -22 4 -55 8 -74 10 -19 2 -60 7 -90 10 -56 7 -495 16 -501 11z m335
-1522 c128 -33 227 -112 306 -245 40 -67 96 -198 104 -243 3 -14 7 -30 11 -36
3 -5 8 -18 10 -27 1 -10 10 -52 18 -93 9 -41 19 -95 22 -120 3 -25 8 -56 10
-70 22 -147 28 -270 28 -555 1 -230 -7 -437 -17 -491 -2 -11 -7 -48 -11 -84
-4 -36 -9 -74 -11 -85 -2 -11 -9 -45 -15 -75 -6 -30 -12 -64 -14 -75 -1 -12
-10 -42 -19 -68 -9 -26 -16 -52 -16 -57 0 -5 -5 -21 -12 -37 -6 -15 -12 -35
-14 -43 -5 -27 -86 -177 -110 -206 -56 -66 -71 -81 -104 -106 -90 -67 -156
-90 -277 -94 -146 -4 -253 37 -349 134 -79 80 -87 92 -137 197 -43 89 -80 199
-92 270 -2 11 -9 43 -15 70 -7 28 -13 61 -15 75 -1 14 -5 39 -9 55 -3 17 -8
54 -11 83 -12 129 -16 155 -21 163 -3 5 0 9 6 9 6 0 8 5 4 11 -9 15 -14 142
-13 369 0 228 7 353 24 495 3 22 7 56 10 75 10 82 17 122 46 239 28 113 39
145 87 251 51 112 153 229 234 271 107 55 249 72 362 43z"/>
<path d="M10 8612 c-7 -3 -10 -249 -10 -713 l0 -709 479 0 479 0 4 -40 c2 -22
1 -40 -2 -40 -4 0 -4 -137 1 -150 1 -3 0 -9 -1 -15 -1 -5 -2 -66 -1 -135 1
-145 1 -150 0 -210 0 -25 0 -49 1 -55 1 -5 1 -14 0 -20 -2 -13 -2 -87 0 -100
1 -5 1 -14 0 -20 -4 -21 -1 -95 4 -104 4 -5 3 -12 -2 -15 -4 -2 -5 -34 -2 -70
3 -36 3 -66 0 -66 -4 0 -4 -137 1 -150 1 -3 0 -9 -1 -15 -5 -23 -1 -265 5
-275 3 -5 3 -10 -2 -10 -4 0 -7 -80 -5 -177 1 -98 3 -184 3 -190 0 -7 -1 -55
-2 -105 0 -51 0 -97 1 -103 1 -5 2 -12 1 -15 -7 -17 -4 -260 2 -260 5 0 5 -5
2 -10 -6 -10 -10 -151 -5 -175 1 -5 2 -14 1 -19 -3 -14 -4 -150 -1 -161 1 -5
2 -12 1 -15 -7 -17 -4 -260 2 -260 5 0 5 -5 2 -10 -6 -10 -10 -151 -5 -175 1
-5 2 -14 1 -19 -5 -27 -2 -206 3 -215 4 -6 4 -11 -1 -11 -4 0 -7 -80 -5 -177
1 -98 3 -185 2 -193 -1 -59 2 -125 6 -132 3 -4 2 -8 -3 -8 -8 0 -7 -95 1 -117
3 -7 2 -13 -2 -13 -8 0 -5 -110 3 -118 7 -8 1865 -5 1873 2 4 4 7 1263 7 2797
l1 2789 -36 1 c-162 2 -2792 3 -2800 1z"/>
<path d="M8799 8615 c-1 0 -3 -321 -3 -712 l-2 -713 477 0 c373 0 478 -3 481
-12 2 -7 3 -946 2 -2085 l0 -2073 20 -1 c27 -1 1837 -1 1854 0 9 1 12 567 12
2796 l0 2795 -27 1 c-19 0 -2567 4 -2814 4z"/>
</g>
</svg>
